<svg xmlns="http://www.w3.org/2000/svg" viewBox="0 0 64 64">
  <defs>
    <linearGradient id="bgGrad" x1="0%" y1="0%" x2="100%" y2="100%">
      <stop offset="0%" stop-color="#3182ce" />
      <stop offset="100%" stop-color="#805ad5" />
    </linearGradient>
    <filter id="shadow" x="-10%" y="-10%" width="120%" height="120%">
      <feDropShadow dx="0" dy="2" stdDeviation="3" flood-opacity="0.3"/>
    </filter>
  </defs>
  <rect width="64" height="64" rx="16" fill="url(#bgGrad)" />
  
  <!-- Document 1 -->
  <path d="M20 18h16a3 3 0 0 1 3 3v22a3 3 0 0 1-3 3H20a3 3 0 0 1-3-3V21a3 3 0 0 1 3-3z" fill="#ffffff" opacity="0.7" />
  
  <!-- Document 2 -->
  <path d="M28 24h16a3 3 0 0 1 3 3v22a3 3 0 0 1-3 3H28a3 3 0 0 1-3-3V27a3 3 0 0 1 3-3z" fill="#ffffff" filter="url(#shadow)" />
  
  <!-- Plus symbol or zipper indicating merge -->
  <path d="M30 38h12M36 32v12" stroke="#3182ce" stroke-width="3" stroke-linecap="round" />
</svg>
